<?xml version="1.0" encoding="UTF-8"?><svg id="Camada_2" xmlns="http://www.w3.org/2000/svg" viewBox="0 0 77.77 91.88"><defs><style>.cls-1{fill:#6b2b26;}.cls-2{fill:#f29d7e;}.cls-3{fill:#ff7300;}.cls-4{fill:#ee8663;}.cls-5{fill:#874139;}.cls-6{fill:#c65900;}.cls-7{fill:#763635;}</style></defs><g id="OBJECTS"><g><path class="cls-5" d="M41.92,19.79s3.61-16.25-.51-19.17c-12.52-2.72-20.25,5.48-20.25,5.48-3.61,3.11-6.69,7.2-9.19,14.98,8.93,0,17.98,0,27.07-.07,.92-.6,1.88-1.01,2.88-1.23Z"/><path class="cls-5" d="M31.68,24.45c1.02-1.54,2.16-2.65,3.36-3.43-9.09,.06-18.14,.07-27.07,.07-.13,.41-.26,.82-.39,1.25-.93,3.12-.45,7.8-.51,11.94,5.54,.37,11.06,.67,16.54,.88,2.69-3.35,5.39-6.81,8.08-10.71Z"/><path class="cls-5" d="M25.6,35.16c-5.49-.21-11-.51-16.54-.88-.03,1.7-.14,3.31-.49,4.68-.36,1.4-.84,2.42-1.38,3.27,4.13,.18,8.27,.32,12.4,.4,2-2.53,4.01-4.97,6.01-7.47Z"/><path class="cls-5" d="M2.8,64.18c.47,6.09-2.15,7.32-2.15,7.32,1.46,.84,4.15,2.21,6.92,2.43l.96-4.88c.68,1.62,.69,4.99,.69,4.99,1.89,.21,5.45,.79,7.37,.76,1.23-1.75,1.93-3.78,1.93-5.81,.21-2.42-.31-4.91-1.03-7.39-5.08-.17-10.16-.44-15.27-.84,.29,1.44,.53,2.68,.58,3.42Z"/><path class="cls-5" d="M16.02,44.62c.52-.67,1.05-1.34,1.57-1.99-4.13-.08-8.27-.21-12.4-.4-1.82,2.85-4.34,3.61-5.14,9.56-.27,1.97,.55,5.92,1.16,8.97,5.1,.41,10.19,.67,15.27,.84-1.77-6.13-4.71-12.19-.46-16.98Z"/><path class="cls-5" d="M63.26,6.11C51.92-2.73,41.41,.62,41.41,.62l1.09,19.06c2.32-.36,4.78,.18,7.2,1.24,7.55-.09,15.08-.23,22.55-.46-2.45-7.4-5.33-11.5-8.99-14.36Z"/><path class="cls-5" d="M68.84,22.34c-.19-.65-.39-1.27-.59-1.88-7.47,.22-15,.37-22.55,.46,3.89,1.72,7.67,4.8,10.6,7.73,1.83,1.65,2.22,4.1,2.23,6.76,3.51-.08,7.03-.2,10.55-.34-.42-4.24,.91-8.91-.24-12.74Z"/><path class="cls-5" d="M76.72,53.7c-.77-5.71-3.56-8.79-5.58-12.49-4.25,.27-8.5,.52-12.75,.72,.02,.63,.06,1.25,.15,1.85,0,2.52,3.73,4.2,5.22,6.72,1.43,3.21,.81,6.81,.1,10.42,3.88-.17,7.76-.36,11.65-.55,.68-2.31,1.45-4.93,1.21-6.68Z"/><path class="cls-5" d="M75.58,64.18c.07-.92,.48-2.3,.93-3.81-3.89,.19-7.77,.37-11.65,.55-.77,3.95-1.66,7.92-.1,11.43,.22,.86,.54,1.64,.94,2.37,1.59-.1,4.9-.63,6.43-.93,.87-.17-.47-4.74-.47-4.74,.76-.22,2.07,4.28,2.8,3.99,.9-.36,2.49-1.06,3.32-1.54,0,0-2.66-1.22-2.19-7.32Z"/><path class="cls-5" d="M71.39,36.94c-.15-.61-.25-1.23-.32-1.86-3.52,.15-7.04,.26-10.55,.34,.01,2.14-.21,4.41-.15,6.51,4.25-.21,8.5-.45,12.75-.72-.71-1.3-1.33-2.68-1.74-4.27Z"/><path class="cls-1" d="M38.92,19.79c-.99,.22-1.96,.63-2.88,1.23,.97,0,1.94-.02,2.9-.02l-.03-1.21Z"/><path class="cls-1" d="M39.5,19.68l-.03,1.32c2.41-.02,4.82-.04,7.23-.07-2.42-1.07-4.88-1.61-7.2-1.24Z"/><path class="cls-1" d="M60.38,41.93c-.07-2.11,.16-4.38,.15-6.51-11.65,.27-23.24,.19-34.93-.26-2,2.5-4.01,4.94-6.01,7.47,13.6,.26,27.19-.03,40.79-.69Z"/><path class="cls-1" d="M63.85,60.93c.71-3.61,1.33-7.21-.1-10.42-1.49-2.52-5.22-4.2-5.22-6.72-.09-.59-.13-1.21-.15-1.85-13.6,.66-27.19,.95-40.79,.69-.52,.66-1.05,1.32-1.57,1.99-4.25,4.79-1.31,10.85,.46,16.98,15.85,.53,31.59,.04,47.37-.68Z"/><path class="cls-1" d="M64.85,60.93c-15.78,.71-31.52,1.2-47.37,.68,.72,2.48,1.25,4.97,1.03,7.39,0,2.03-.7,4.06-1.93,5.81,10.01-.18,19.82-3.22,22.62-4.16,3.17,1.06,15.25,4.79,26.48,4.08-.39-.73-.72-1.51-.94-2.37-1.56-3.51-.68-7.48,.1-11.43Z"/><path class="cls-1" d="M58.53,35.42c-.02-2.67-.41-5.12-2.23-6.76-2.93-2.93-6.71-6.02-10.6-7.73-2.41,.03-4.82,.05-7.23,.07l-.26,12.13-.26-12.13c-.97,0-1.94,.02-2.9,.02-1.2,.78-2.33,1.89-3.36,3.43-2.69,3.9-5.39,7.35-8.08,10.71,11.68,.45,23.28,.53,34.93,.26Z"/><g><path class="cls-2" d="M45.24,61.64c-3.77,.09-7.54,.15-11.32,.17,2.51,3.97,5.44,8.28,5.44,8.28,0,0,3.22-4.45,5.88-8.45Z"/><path class="cls-2" d="M48.7,55.72c-2.99-.72-6.36-1.13-10.18-1.13-2.98,0-5.68,.31-8.12,.88,.12,.78,1.71,3.47,3.53,6.34,3.77-.02,7.55-.08,11.32-.17,1.77-2.66,3.29-5.11,3.46-5.92Z"/></g><path class="cls-3" d="M52.26,61.4c1.98-1.95,3.15-4.32,3.15-6.89,0-6.59-7.63-10.91-17.05-10.91s-17.05,4.32-17.05,10.91c0,2.74,1.34,5.26,3.57,7.28,9.15,.11,18.27-.07,27.39-.39Z"/><path class="cls-3" d="M53.26,61.4c-9.12,.32-18.24,.5-27.39,.39,3.12,2.82,7.99,4.65,13.48,4.65s10.81-1.99,13.9-5.04Z"/><path class="cls-6" d="M51.1,54.64c0-4.92-5.7-8.15-12.74-8.15s-12.74,3.23-12.74,8.15c0,2.95,2.06,5.57,5.23,7.19,5.17,0,10.33-.1,15.48-.24,2.91-1.63,4.77-4.14,4.77-6.95Z"/><path class="cls-6" d="M47.33,61.58c-5.16,.14-10.32,.23-15.48,.24,2.11,1.08,4.7,1.72,7.51,1.72,3.02,0,5.79-.74,7.97-1.97Z"/><path class="cls-4" d="M31.66,47.89l.34,4.01c4.25,1.1,8.63,1.23,12.68,.35l.07-5.73-13.09,1.38Z"/><path class="cls-2" d="M38.21,61.25c5.58,0,6.4-3.26,6.4-3.26l.07-5.74c-4.05,.88-8.43,.75-12.68-.35l.51,6.09s.72,3.26,5.7,3.26Z"/><path class="cls-2" d="M61.89,14.87c-2.55-8.76-12.4-13.71-25.83-11.02-9.9,1.99-15.36,8.26-16.35,17.23,14.31-.01,28.88-.07,43.29-.38-.41-3.66-1.1-5.83-1.1-5.83Z"/><path class="cls-2" d="M58.24,35.43c.35-1.21,.61-2.44,.75-3.68,.48-4.39,.33-8.18,0-11.05-14.41,.31-28.97,.37-43.29,.38-.38,3.39-.13,7.15,.77,11.23,.2,.89,.42,1.74,.65,2.55,13.79,.68,27.41,.87,41.11,.56Z"/><path class="cls-2" d="M57.03,42.09c1.44-2.05,2.53-4.31,3.22-6.66-13.7,.31-27.32,.12-41.11-.56,.91,3.11,2.11,5.68,3.54,7.8,11.45,.15,22.9-.08,34.35-.58Z"/><path class="cls-2" d="M20.68,42.67c4.47,6.61,11.25,8.68,18.81,8.19,6.85-.44,12.17-4,15.54-8.77-11.45,.5-22.9,.73-34.35,.58Z"/><path class="cls-5" d="M24.25,25.84s-1.63-1.45,1.81-3.26c3.44-1.81,4.65-1.41,5.21-.51,.51,.83-.28,2.06-2.23,3.04-2.35,1.17-3.91,1.56-4.79,.72Z"/><path class="cls-5" d="M48.99,22.27c-3.44-1.81-4.65-1.41-5.21-.51-.51,.83,.28,2.06,2.23,3.04,2.35,1.17,3.91,1.56,4.79,.72,0,0,1.63-1.45-1.81-3.26Z"/><path class="cls-7" d="M38.39,40.17c2.12-1.57,3.38-.04,3.43,.03,.06,.07,.16,.08,.23,.03,.07-.06,.08-.16,.03-.23-.01-.02-1.34-1.65-3.48-.36-.13,.08-.27,.17-.4,.27-.07,.05-.09,.16-.03,.23,.05,.07,.15,.08,.23,.03Z"/><path class="cls-4" d="M28.98,41.12c2.91,.58,5.52-.22,5.83-1.77,.31-1.56-1.8-3.28-4.72-3.86-2.91-.58-5.52,.22-5.83,1.77-.31,1.56,1.8,3.28,4.72,3.86Z"/><path class="cls-4" d="M49.32,35.49c-.1,.02-.2,.05-.3,.08,1.33,0,2.66-.02,3.99-.04-1.03-.27-2.32-.31-3.69-.04Z"/><path class="cls-4" d="M51.43,41.12c2.91-.58,5.02-2.31,4.72-3.86-.16-.82-.98-1.42-2.14-1.73-1.33,.02-2.66,.03-3.99,.04-2.75,.63-4.71,2.29-4.41,3.78,.31,1.56,2.92,2.35,5.83,1.77Z"/><path class="cls-5" d="M40.27,36.84c.12-.5-.24-1-.74-1.09-1.29-.23-4.07-.14-7.84,3.23,0,0,7.79,1.04,8.58-2.14Z"/><path class="cls-5" d="M48.73,38.97c-3.76-3.37-6.55-3.45-7.84-3.23-.51,.09-.87,.59-.74,1.09,.79,3.17,8.58,2.14,8.58,2.14Z"/><path class="cls-5" d="M40.05,41.68c-.53,0-1.77,.15-1.93,.97,1.39-.02,2.78-.04,4.17-.07-.18-.61-.98-.9-2.24-.89Z"/><path class="cls-5" d="M36.12,42.65c-.01,.07-.03,.14-.03,.23,.04,.77,2.34,2.63,2.34,2.63,0,0,1.95-1.99,1.9-2.73,0-.07-.02-.13-.04-.2-1.39,.03-2.78,.05-4.17,.07Z"/><path class="cls-5" d="M33.52,18.95c4.51,.69,9.41-4.16,9.3-7.29l.79-9.02S23.72,.99,19.16,12.45c-1.22,3.07-2.21,5.99-3.02,8.64,3.61,0,7.23,0,10.87-.01,1.78-1.75,4.11-2.5,6.51-2.13Z"/><path class="cls-5" d="M12.14,21.09c-2.21,7.24-3.01,12.37-3.01,12.37l3.9,.3s5.46,.71,7.06-6.98c.51-2.46,1.56-4.38,2.92-5.71-3.64,0-7.26,.01-10.87,.01Z"/><path class="cls-5" d="M64.37,12.45C59.82,.99,39.92,2.64,39.92,2.64l.79,9.02c-.1,3.12,4.79,7.98,9.3,7.29,2.28-.35,4.49,.32,6.24,1.89,3.65-.06,7.28-.14,10.91-.23-.73-2.53-1.65-5.3-2.79-8.16Z"/><path class="cls-5" d="M52.25,20.83c1.49,1.34,2.65,3.34,3.19,5.96,1.6,7.69,7.06,6.98,7.06,6.98h3.42s-.56-5.55-2.76-13.16c-3.63,.09-7.26,.17-10.91,.23Z"/><path class="cls-2" d="M66.12,34.87c-.41-8.17-10.37-5.19-10.37-5.19l-.33,5.82c3.56-.06,7.12-.16,10.7-.29,0-.12,.01-.22,0-.34Z"/><path class="cls-2" d="M68.11,35.21c-3.57,.13-7.14,.22-10.7,.29l-.16,2.78c2.65,5.09,11,4.75,10.85-3.07Z"/><path class="cls-7" d="M59.18,32.73c.96-.64,1.91-.87,2.82-.67,1.57,.34,2.52,1.84,2.53,1.86,.05,.08,.15,.1,.23,.05,.08-.05,.1-.15,.05-.23-.04-.07-1.03-1.63-2.74-2.01-1-.22-2.04,.02-3.08,.72-1.18,.78-1.59,1.91-1.67,2.99,.11,0,.22,0,.33,0,.08-.99,.46-2.01,1.52-2.71Z"/><path class="cls-7" d="M60.05,38.76s.05,0,.07-.01c.08-.04,.12-.13,.08-.22-.01-.02-.67-1.51-.55-3.08-.11,0-.22,0-.33,0-.12,1.65,.56,3.18,.57,3.21,.03,.06,.09,.1,.15,.1Z"/><g><path class="cls-7" d="M57.37,35.51c.06,.06,.17,.06,.23,0,.02-.02,.05-.04,.07-.06-.11,0-.22,0-.33,0,0,.02,0,.04,.02,.05Z"/><path class="cls-7" d="M62.18,35.26s-2.77-2.03-4.81,.02c-.05,.05-.05,.12-.02,.18,.11,0,.22,0,.33,0,1.46-1.37,3.31-.52,4.02-.11,.18,0,.35,0,.53-.01-.01-.02-.02-.05-.04-.06Z"/><path class="cls-7" d="M61.69,35.33c.18,.11,.29,.18,.29,.19,.03,.02,.06,.03,.1,.03,.05,0,.1-.02,.13-.07,.04-.05,.03-.11,0-.17-.18,0-.35,0-.53,.01Z"/></g><path class="cls-2" d="M23.16,38.28l-.94-3.27c-3.29-.14-6.58-.32-9.89-.52-.01,.13-.02,.25-.03,.38-.41,8.17,8.17,8.58,10.86,3.41Z"/><path class="cls-2" d="M10.33,34.49c3.31,.2,6.6,.37,9.89,.52l-1.55-5.41s-7.7-2.79-8.34,4.9Z"/><path class="cls-7" d="M20.36,38.76c.06,0,.12-.04,.15-.1,.01-.03,.83-1.88,.51-3.71-.11,0-.22,0-.33-.02,.34,1.74-.47,3.56-.48,3.58-.04,.08,0,.18,.08,.22,.02,0,.05,.01,.07,.01Z"/><path class="cls-7" d="M17.42,32.46c-1.04-.69-2.08-.93-3.08-.72-1.71,.37-2.7,1.94-2.74,2.01-.05,.08-.02,.18,.05,.23,.08,.05,.18,.02,.23-.05,0-.02,.96-1.52,2.53-1.86,.91-.2,1.86,.03,2.82,.67,.88,.59,1.29,1.39,1.45,2.21,.11,0,.22,0,.33,.02-.16-.92-.61-1.83-1.6-2.5Z"/><path class="cls-7" d="M15.09,34.78c.28,.01,.56,.02,.85,.04,.6-.16,1.3-.2,1.99,.09,.24,.01,.49,.02,.73,.03-1.25-.93-2.68-.56-3.56-.16Z"/><path class="cls-7" d="M19.81,35.51c.06,.06,.17,.06,.23,0,.06-.06,.06-.17,0-.23-.13-.13-.26-.24-.39-.34-.24-.01-.49-.02-.73-.03,.3,.13,.6,.32,.89,.6Z"/><path class="cls-7" d="M15.23,35.26c-.07,.05-.09,.16-.03,.23,.03,.04,.08,.07,.13,.07,.03,0,.07-.01,.1-.03,.01,0,.65-.47,1.51-.71-.28-.01-.56-.02-.85-.04-.51,.23-.85,.47-.86,.48Z"/><g><path class="cls-3" d="M59.34,61.17c-2.2-1.57-4.79-2.91-7.86-3.89l-3.53,3.44H31.7l-3.13-3.9c-3.71,1.09-6.76,2.78-9.28,4.83,13.4,.38,26.72,.06,40.06-.49Z"/><path class="cls-3" d="M59.34,61.17c-13.34,.55-26.67,.87-40.06,.49-12.6,10.26-11.81,29.74-11.81,30.23h63.53s2.66-20.48-11.67-30.72Z"/></g><g><path class="cls-3" d="M36.45,61.79c-1.74-2.53-4.69-5.78-8.92-7.02l-4.4,.78c-1.36,1.74-1.41,3.71-1.41,3.71,.32,1.11,1.1,1.91,2.16,2.51,4.2,.06,8.39,.07,12.58,.02Z"/><path class="cls-3" d="M36.45,61.79c-4.19,.05-8.38,.04-12.58-.02,3.56,2.04,10.39,1.8,14.49,3.34,0,0-.63-1.47-1.91-3.33Z"/></g><g><path class="cls-6" d="M23.1,59.88c-.04-.07-.12-.09-.19-.06-.07,.03-.09,.12-.06,.19,.38,.73,.97,1.3,1.72,1.76,.18,0,.37,0,.55,0-.91-.48-1.62-1.09-2.03-1.9Z"/><path class="cls-6" d="M38,64.55c-1.56-.41-3.38-.67-5.14-.92-2.84-.4-5.75-.81-7.72-1.86-.18,0-.37,0-.55,0,2.02,1.25,5.16,1.7,8.24,2.14,1.76,.25,3.57,.51,5.11,.91,.01,0,.02,0,.03,0,.06,0,.12-.04,.13-.1,.02-.07-.02-.15-.1-.17Z"/></g><g><path class="cls-6" d="M36.62,61.79c-.11,0-.22,0-.33,0,.86,1.25,1.45,2.34,1.75,2.95,.02,.05,.07,.08,.12,.08,.02,0,.04,0,.06-.01,.07-.03,.1-.12,.06-.18-.29-.6-.84-1.64-1.66-2.84Z"/><path class="cls-6" d="M27.56,54.64c-.07-.02-.15,.02-.17,.09-.02,.07,.02,.15,.09,.17,4.16,1.22,7.06,4.38,8.8,6.89,.11,0,.22,0,.33,0-1.75-2.57-4.74-5.88-9.06-7.15Z"/></g><path class="cls-3" d="M36.04,62.75c0,.32-.26,.57-.59,.57s-.59-.26-.59-.57,.26-.57,.59-.57,.59,.26,.59,.57Z"/><path class="cls-6" d="M35.16,73.93s-.05,0-.08-.01c-.14-.04-.22-.19-.18-.33,.55-1.71,.17-2.49-.6-4.04-.21-.42-.44-.89-.69-1.45-1.22-2.74,1.53-5.43,1.65-5.54,.11-.1,.28-.1,.39,0,.11,.1,.11,.27,0,.37-.03,.02-2.6,2.55-1.53,4.96,.24,.55,.47,1.01,.68,1.43,.78,1.57,1.25,2.52,.63,4.43-.04,.11-.14,.18-.26,.18Z"/><g><path class="cls-3" d="M55.23,59.26s-.05-1.97-1.41-3.71l-4.4-.78c-4.19,1.23-7.13,4.43-8.87,6.95,4.4-.09,8.8-.21,13.2-.38,.71-.54,1.24-1.21,1.49-2.08Z"/><path class="cls-3" d="M53.74,61.34c-4.4,.16-8.8,.29-13.2,.38-1.31,1.89-1.96,3.4-1.96,3.4,4.38-1.64,11.86-1.26,15.16-3.78Z"/></g><g><path class="cls-6" d="M56.08,60.01c.03-.07,0-.15-.06-.19-.07-.03-.15,0-.19,.06-.3,.58-.76,1.06-1.34,1.47,.16,0,.33-.01,.49-.02,.46-.38,.83-.81,1.09-1.32Z"/><path class="cls-6" d="M54.5,61.35c-1.94,1.37-5.22,1.83-8.42,2.29-1.76,.25-3.59,.51-5.14,.92-.07,.02-.12,.09-.1,.17,.02,.06,.07,.1,.13,.1,.01,0,.02,0,.03,0,1.54-.4,3.36-.66,5.11-.91,3.41-.48,6.92-.98,8.87-2.58-.16,0-.33,.01-.49,.02Z"/></g><g><path class="cls-6" d="M49.45,54.9c.07-.02,.12-.1,.09-.17-.02-.07-.1-.11-.17-.09-4.28,1.26-7.25,4.52-9.01,7.08,.11,0,.23,0,.34,0,1.75-2.5,4.63-5.6,8.75-6.81Z"/><path class="cls-6" d="M40.37,61.72c-.84,1.23-1.41,2.3-1.71,2.9-.03,.07,0,.15,.06,.18,.02,0,.04,.01,.06,.01,.05,0,.1-.03,.12-.08,.31-.63,.91-1.75,1.8-3.03-.11,0-.23,0-.34,0Z"/></g><path class="cls-3" d="M42.9,62.75c0,.32,.26,.57,.59,.57s.59-.26,.59-.57-.26-.57-.59-.57-.59,.26-.59,.57Z"/><path class="cls-6" d="M43.78,73.93s.05,0,.08-.01c.14-.04,.22-.19,.18-.33-.55-1.71-.17-2.49,.6-4.04,.21-.42,.44-.89,.69-1.45,1.22-2.74-1.53-5.43-1.65-5.54-.11-.1-.28-.1-.39,0-.11,.1-.11,.27,0,.37,.03,.02,2.6,2.55,1.53,4.96-.24,.55-.47,1.01-.68,1.43-.78,1.57-1.25,2.52-.63,4.43,.04,.11,.14,.18,.26,.18Z"/><g><rect class="cls-6" x="17.48" y="75.02" width=".56" height="13.22"/><rect class="cls-6" x="60.63" y="75.02" width=".56" height="13.22"/></g><path d="M41.14,32.22c.07-4.49,3.79-8.09,8.28-8.01,4.46,.07,8.02,3.73,8.01,8.18,.15,0,.3-.01,.46-.02,0-4.69-3.76-8.54-8.46-8.62-4.74-.08-8.67,3.72-8.75,8.46,0,.22,0,.43,.02,.64,.15,0,.3,0,.46,0-.01-.21-.02-.41-.02-.63Z"/><path d="M41.16,32.84c-.15,0-.3,0-.46,0,.05,.95,.27,1.86,.61,2.7,.16,0,.33,0,.5,0-.36-.84-.59-1.76-.65-2.71Z"/><path d="M57.89,32.49s0-.08,0-.13c-.15,0-.3,.01-.46,.02,0,.03,0,.07,0,.1-.02,1.06-.24,2.06-.63,2.98,.16,0,.33-.01,.49-.01,.36-.92,.57-1.91,.59-2.96Z"/><path d="M51.14,40.96c3.7,.06,6.89-2.24,8.16-5.5-.16,0-.33,.01-.49,.01-1.24,3-4.22,5.09-7.66,5.03-3.31-.05-6.11-2.09-7.34-4.94-.16,0-.33,0-.5,0,1.25,3.11,4.27,5.34,7.83,5.4Z"/><path d="M17.7,33.07c-.15,0-.31,0-.46,0,.08,.63,.24,1.24,.45,1.83,.17,0,.33,.01,.5,.02-.23-.59-.4-1.21-.49-1.85Z"/><path d="M27.62,40.57c3.55,.06,6.63-2.06,8-5.11-.17,0-.33,0-.5-.01-1.33,2.8-4.2,4.72-7.49,4.67-3.4-.06-6.27-2.2-7.44-5.19-.17,0-.33-.01-.5-.02,1.18,3.25,4.27,5.61,7.93,5.67Z"/><path d="M33.85,32.95c-.11,.88-.36,1.72-.73,2.49,.17,0,.33,.01,.5,.01,.35-.78,.59-1.63,.69-2.51-.15,0-.31,0-.46,0Z"/><path d="M17.62,31.83c.07-4.49,3.79-8.09,8.28-8.01,4.49,.07,8.09,3.79,8.01,8.28,0,.29-.03,.57-.06,.85,.15,0,.31,0,.46,0,.03-.28,.05-.55,.06-.84,.08-4.74-3.72-8.67-8.46-8.75-4.74-.08-8.67,3.72-8.74,8.46,0,.42,.03,.84,.08,1.25,.15,0,.31,0,.46,0-.06-.41-.09-.82-.08-1.24Z"/><path d="M34.16,31.13s.08,0,.12-.03c3.31-1.86,6.59,.09,6.63,.11,.11,.07,.25,.03,.31-.08,.07-.11,.03-.25-.08-.31-.04-.02-3.55-2.11-7.09-.12-.11,.06-.15,.2-.09,.31,.04,.07,.12,.12,.2,.12Z"/><g><path d="M49.29,33.73c-.12,0-.24-.04-.33-.13l-4.19-3.82c-.2-.18-.22-.5-.03-.7,.19-.2,.5-.22,.7-.03l4.19,3.82c.2,.18,.22,.5,.03,.7-.1,.11-.23,.16-.37,.16Z"/><path d="M45.09,33.73c-.13,0-.27-.05-.37-.16-.18-.2-.17-.52,.03-.7l4.19-3.82c.2-.18,.52-.17,.7,.03,.18,.2,.17,.52-.03,.7l-4.19,3.82c-.09,.09-.21,.13-.33,.13Z"/></g><g><path d="M29.64,33.73c-.12,0-.24-.04-.33-.13l-4.19-3.82c-.2-.18-.22-.5-.03-.7,.19-.2,.5-.22,.7-.03l4.19,3.82c.2,.18,.22,.5,.03,.7-.1,.11-.23,.16-.37,.16Z"/><path d="M25.44,33.73c-.13,0-.27-.05-.37-.16-.18-.2-.17-.52,.03-.7l4.19-3.82c.2-.18,.52-.17,.7,.03,.18,.2,.17,.52-.03,.7l-4.19,3.82c-.09,.09-.21,.13-.33,.13Z"/></g></g></g></svg>