<?xml version="1.0" encoding="UTF-8"?><svg id="Camada_2" xmlns="http://www.w3.org/2000/svg" viewBox="0 0 105.66 103.72"><defs><style>.cls-1{fill:#fff;}.cls-2{fill:#6b2b26;}.cls-3{fill:#f29d7e;}.cls-4{fill:#e2e2e2;}.cls-5{fill:#000100;}.cls-6{fill:#ee8663;}.cls-7{fill:#874139;}.cls-8{fill:none;}.cls-9{fill:#763635;}.cls-10{fill:#ccc;}.cls-11{fill:#7f7f7f;}.cls-12{fill:#b5aa73;}</style></defs><g id="OBJECTS"><g><g><path class="cls-4" d="M30.15,70.75l2.73-.21-.4-5.28-2.7,.2c-.41-1.48-1.06-2.86-1.91-4.08l1.85-1.94-3.83-3.65-1.84,1.93c-1.37-.87-2.91-1.51-4.56-1.84v-2.65h-5.29v2.65c-2.08,.42-3.98,1.31-5.59,2.57l-2.02-1.75-3.47,4,2.03,1.76c-.85,1.51-1.41,3.19-1.62,4.99l-2.72,.2,.4,5.28,2.74-.21c.42,1.46,1.08,2.81,1.93,4.02l-1.92,2.01,3.83,3.65,1.93-2.02c1.35,.85,2.85,1.46,4.47,1.78v2.8h5.29v-2.8c2.04-.41,3.91-1.28,5.5-2.5l2.11,1.83,3.47-4-2.09-1.81c.86-1.49,1.43-3.16,1.66-4.94Zm-13.29,2.56c-2.33,0-4.21-1.89-4.21-4.21s1.88-4.21,4.21-4.21,4.21,1.89,4.21,4.21-1.89,4.21-4.21,4.21Z"/><path class="cls-10" d="M25.28,69.1c0,4.65-3.77,8.42-8.43,8.42s-8.42-3.77-8.42-8.42,3.77-8.43,8.42-8.43,8.43,3.77,8.43,8.43Z"/><path class="cls-1" d="M21.06,69.1c0,2.33-1.89,4.21-4.21,4.21s-4.21-1.89-4.21-4.21,1.88-4.21,4.21-4.21,4.21,1.89,4.21,4.21Z"/><path class="cls-8" d="M16.85,58.08c5.86,0,11.02,4.71,11.02,11.02"/></g><g><path class="cls-10" d="M49.63,16.54s.03-.03,.05-.04l8.57-8.57c.06-.06,.11-.12,.16-.19,1.47,.63,3.24,.35,4.44-.86s1.47-2.88,.9-4.33l-2.62,2.62-2.27-2.27,2.62-2.62c-1.45-.57-3.16-.27-4.33,.9s-1.48,2.97-.85,4.44c-.06,.04-.13,.09-.19,.16l-8.57,8.57s-.01,.02-.02,.03c-1.47-.64-3.25-.36-4.45,.85s-1.47,2.88-.9,4.33l2.62-2.62,2.27,2.27-2.62,2.62c1.45,.57,3.16,.27,4.33-.9s1.48-2.93,.88-4.39Z"/><path class="cls-1" d="M49.61,15.08c-.16,.16-.44,.13-.62-.06h0c-.19-.19-.22-.47-.06-.62l7.36-7.36c.16-.16,.43-.13,.62,.06h0c.19,.19,.22,.47,.06,.62l-7.36,7.36Z"/><path class="cls-8" d="M61.95,6.28c-1.18,1.12-3.05,1.08-4.18-.1"/><path class="cls-8" d="M43.39,16.39c1.18-1.13,3.05-1.08,4.17,.1"/></g><g><g><path class="cls-10" d="M79.15,65.21l25.02,1.49,1.49-25.02-26.51,23.53Zm20.62-3.44l-9.31-.55,9.86-8.75-.55,9.31Z"/><g><line class="cls-10" x1="82.29" y1="64.09" x2="82.22" y2="65.39"/><line class="cls-10" x1="83.87" y1="64.18" x2="83.79" y2="65.48"/><line class="cls-10" x1="85.45" y1="64.28" x2="85.37" y2="65.58"/><line class="cls-10" x1="87.02" y1="64.37" x2="86.94" y2="65.67"/><line class="cls-10" x1="88.6" y1="64.47" x2="88.52" y2="65.77"/><line class="cls-10" x1="90.17" y1="64.56" x2="90.1" y2="65.86"/><line class="cls-10" x1="91.75" y1="64.65" x2="91.67" y2="65.95"/><line class="cls-10" x1="93.33" y1="64.75" x2="93.25" y2="66.05"/><line class="cls-10" x1="94.9" y1="64.84" x2="94.83" y2="66.14"/><line class="cls-10" x1="96.48" y1="64.93" x2="96.4" y2="66.23"/><line class="cls-10" x1="98.05" y1="65.03" x2="97.98" y2="66.33"/><line class="cls-10" x1="99.63" y1="65.12" x2="99.55" y2="66.42"/><line class="cls-10" x1="101.21" y1="65.22" x2="101.13" y2="66.52"/><line class="cls-10" x1="102.78" y1="65.31" x2="102.71" y2="66.61"/></g></g><g><rect class="cls-10" x="79.64" y="50.66" width="17.22" height="2.28" transform="translate(-12.13 71.67) rotate(-41.61)"/><rect class="cls-4" x="94.53" y="44.54" width="1.21" height="2.28" transform="translate(-6.35 74.65) rotate(-41.58)"/><path class="cls-4" d="M96.34,46.13l.49-.44c.47-.42,.51-1.14,.1-1.61-.42-.47-1.14-.51-1.61-.1l-.49,.44,1.51,1.7Z"/><polygon class="cls-4" points="81.05 56.66 82.56 58.36 79.77 59.32 81.05 56.66"/><polygon class="cls-4" points="80.4 58.01 79.77 59.32 81.15 58.85 80.4 58.01"/><line class="cls-8" x1="94.68" y1="46.08" x2="81.81" y2="57.51"/></g></g><g><path class="cls-7" d="M33.44,59.19c4.76-6.13,9.53-11.5,14.29-18.4,1.65-2.48,3.6-3.78,5.69-4.25,0,0,3.3-14.83-.46-17.49-11.42-2.48-18.48,5-18.48,5-3.47,2.99-6.4,6.96-8.74,14.81-1.2,4.01,.17,10.88-.91,15.16-1.42,5.6-5,4.66-5.95,11.7-.36,2.65,1.43,9.19,1.59,11.31,.43,5.56-1.96,6.68-1.96,6.68,1.34,.76,3.79,2.02,6.32,2.22l.87-4.45c.62,1.48,.63,4.55,.63,4.55,1.72,.19,4.97,.72,6.72,.69,1.12-1.59,1.76-3.44,1.76-5.3,.68-7.67-6.8-16.1-1.36-22.23Z"/><path class="cls-7" d="M86.86,77.04c.16-2.12,2.31-6.92,1.95-9.57-.95-7.04-5.26-9.69-6.68-15.29-1.09-4.28,.69-9.3-.5-13.31-2.34-7.85-5.13-12-8.74-14.81-10.35-8.06-19.93-5-19.93-5l1,17.38c5.53-.87,11.9,3.85,16.23,8.19,3.4,3.07,1.36,9.2,2.04,13.8,0,2.3,3.4,3.83,4.76,6.13,2.72,6.13-2.72,13.8,0,19.93,.2,.79,.5,1.5,.85,2.16,1.45-.09,4.47-.57,5.87-.85,.79-.16-.43-4.33-.43-4.33,.69-.2,1.89,3.9,2.55,3.64,.82-.33,2.27-.97,3.03-1.4,0,0-2.43-1.11-2-6.68Z"/><path class="cls-2" d="M76.98,64.56c-1.36-2.3-4.76-3.83-4.76-6.13-.68-4.6,1.36-10.73-2.04-13.8-4.33-4.34-10.71-9.05-16.23-8.19l-.27,12.27-.27-12.17c-2.09,.47-4.04,1.77-5.69,4.25-4.76,6.9-9.53,12.27-14.29,18.4-5.44,6.13,2.04,14.57,1.36,22.23,0,1.85-.64,3.7-1.76,5.3,9.13-.17,18.08-2.93,20.64-3.79,2.89,.97,13.91,4.37,24.16,3.72-.36-.66-.66-1.37-.85-2.16-2.72-6.13,2.72-13.8,0-19.93Z"/><path class="cls-12" d="M46.94,67.46s5.08-2.59,14.1,0v2.8h-14.1v-2.8Z"/><path class="cls-3" d="M53.82,82.43s8.13-11.26,8.51-13.11c-2.72-.66-5.8-1.03-9.29-1.03-2.72,0-5.18,.29-7.41,.8,.26,1.69,8.18,13.34,8.18,13.34Z"/><g><path class="cls-6" d="M47.7,62.17l.31,3.66c3.88,1,7.87,1.12,11.57,.32l.07-5.23-11.94,1.26Z"/><path class="cls-3" d="M48.01,65.83l.46,5.56s.66,2.97,5.2,2.97c5.09,0,5.84-2.97,5.84-2.97l.07-5.24c-3.7,.8-7.69,.68-11.57-.32Z"/></g><path class="cls-3" d="M71.74,32.05s2.01,6.3,1,15.4c-.93,8.39-7.49,16.77-17.79,17.43-9.69,.63-17.97-3.33-20.99-16.92-3.02-13.58,1.77-23.47,14.21-25.97,12.25-2.46,21.24,2.06,23.57,10.05Z"/><path class="cls-11" d="M82.95,103.72H24.99c0-.56-1.06-27.33,19.6-33.3,.33-.1,.67-.19,1.02-.28,1.26-.31,2.6-.55,4.02-.69,1.13,.66,2.61,1.33,4.38,1.74,1.73-.4,3.17-1.04,4.29-1.69,1.85,.21,3.57,.53,5.16,.96,.16,.05,.32,.09,.48,.13,22.37,6.36,19.01,33.13,19.01,33.13Z"/><path class="cls-7" d="M40.94,42.05s-1.49-1.32,1.66-2.97c3.14-1.65,4.25-1.29,4.75-.46,.46,.75-.25,1.88-2.04,2.77-2.14,1.07-3.57,1.42-4.37,.66Z"/><path class="cls-7" d="M65.17,41.78s1.49-1.32-1.66-2.97c-3.14-1.65-4.25-1.29-4.75-.46-.46,.75,.25,1.88,2.04,2.77,2.14,1.07,3.57,1.42,4.37,.66Z"/><g><path class="cls-9" d="M54.52,54.69c-2.28,0-2.55-1.9-2.55-1.92-.01-.08,.05-.16,.13-.17,.08-.01,.16,.05,.17,.13,0,.08,.27,1.87,2.67,1.63,.08,0,.16,.05,.16,.13,0,.08-.05,.16-.13,.16-.16,.02-.3,.02-.44,.02Z"/><path class="cls-6" d="M48.76,54.38c-.28,1.42-2.66,2.14-5.32,1.62-2.66-.53-4.58-2.1-4.3-3.52,.28-1.42,2.66-2.14,5.32-1.62,2.66,.53,4.58,2.1,4.3,3.52Z"/><ellipse class="cls-5" cx="45.36" cy="47.4" rx="1.51" ry="1.84"/><path class="cls-5" d="M62.98,47.4c0,1.02-.68,1.84-1.51,1.84s-1.51-.82-1.51-1.84,.68-1.84,1.51-1.84,1.51,.82,1.51,1.84Z"/><path class="cls-6" d="M58.6,54.38c.28,1.42,2.66,2.14,5.32,1.62,2.66-.53,4.58-2.1,4.3-3.52-.28-1.42-2.66-2.14-5.32-1.62-2.66,.53-4.58,2.1-4.3,3.52Z"/></g><path class="cls-7" d="M53.05,51.1c-1.17-.21-3.72-.13-7.15,2.94,0,0,7.11,.95,7.83-1.95,.11-.45-.22-.91-.68-.99Z"/><path class="cls-7" d="M54.3,51.1c1.17-.21,3.72-.13,7.15,2.94,0,0-7.11,.95-7.83-1.95-.11-.45,.22-.91,.68-.99Z"/><path class="cls-7" d="M53.53,56.51c1.27,0,2.04,.32,2.09,1,.05,.68-1.73,2.49-1.73,2.49,0,0-2.1-1.69-2.14-2.4-.05-.94,1.26-1.09,1.79-1.09Z"/><path class="cls-7" d="M30.72,49.8s4.98,.65,6.44-6.36c1.07-5.17,4.74-7.75,8.6-7.16,4.12,.63,8.58-3.8,8.49-6.65l.72-8.23s-18.15-1.5-22.31,8.95c-4.15,10.45-5.5,19.17-5.5,19.17l3.56,.28Z"/><path class="cls-7" d="M75.83,49.8s-4.98,.65-6.44-6.36c-1.07-5.17-4.74-7.75-8.6-7.16-4.12,.63-8.58-3.8-8.49-6.65l-.72-8.23s18.15-1.5,22.31,8.95c4.15,10.45,5.06,19.45,5.06,19.45h-3.12Z"/><g><path class="cls-3" d="M69.23,53.41l.44-7.85s9.09-2.72,9.46,4.73c.38,7.45-7.45,7.83-9.91,3.11Z"/><path class="cls-9" d="M71.78,53.84s.04,0,.06-.01c.07-.03,.11-.12,.07-.2-.02-.04-1.61-3.62,.89-5.29,.88-.59,1.74-.79,2.58-.61,1.44,.31,2.3,1.68,2.31,1.7,.04,.07,.14,.09,.21,.05,.07-.04,.09-.14,.05-.21-.04-.06-.94-1.49-2.5-1.83-.91-.2-1.86,.02-2.81,.65-2.71,1.81-1.01,5.62-1,5.66,.03,.05,.08,.09,.14,.09Z"/><path class="cls-9" d="M75.46,50.92s.09-.02,.12-.06c.05-.07,.04-.16-.03-.21-.02-.02-2.53-1.85-4.39,.01-.06,.06-.06,.15,0,.21,.06,.06,.15,.06,.21,0,1.68-1.68,3.98,0,4,.01,.03,.02,.06,.03,.09,.03Z"/><path class="cls-3" d="M38.12,53.41l-2.26-7.92s-7.26-2.64-7.64,4.81c-.38,7.45,7.45,7.83,9.91,3.11Z"/><path class="cls-9" d="M35.57,53.84s-.04,0-.06-.01c-.07-.03-.11-.12-.07-.2,.02-.04,1.61-3.62-.89-5.29-.88-.59-1.74-.79-2.58-.61-1.44,.31-2.3,1.68-2.31,1.7-.04,.07-.14,.09-.21,.05-.07-.04-.09-.14-.05-.21,.04-.06,.94-1.49,2.5-1.83,.91-.2,1.86,.02,2.81,.65,2.71,1.81,1.01,5.62,1,5.66-.02,.05-.08,.09-.14,.09Z"/><path class="cls-9" d="M31.9,50.92s-.09-.02-.12-.06c-.05-.07-.04-.16,.03-.21,.02-.02,2.53-1.85,4.39,.01,.06,.06,.06,.15,0,.21-.06,.06-.15,.06-.21,0-1.68-1.68-3.98,0-4,.01-.03,.02-.06,.03-.09,.03Z"/></g><g><path d="M55.94,47.27c.07-4.33,3.65-7.79,7.98-7.72,4.33,.07,7.79,3.65,7.72,7.98-.07,4.33-3.65,7.79-7.98,7.72-4.33-.07-7.79-3.65-7.72-7.98Zm.42,0c-.07,4.1,3.21,7.49,7.31,7.55,4.1,.07,7.49-3.21,7.55-7.31,.07-4.1-3.21-7.49-7.31-7.55-4.1-.07-7.49,3.21-7.55,7.31Z"/><path d="M34.48,46.92c.07-4.33,3.65-7.79,7.98-7.72,4.33,.07,7.79,3.65,7.72,7.98-.07,4.33-3.65,7.79-7.98,7.72-4.33-.07-7.79-3.65-7.72-7.98Zm.42,0c-.07,4.1,3.21,7.49,7.31,7.55,4.1,.07,7.49-3.21,7.55-7.31,.07-4.1-3.21-7.49-7.31-7.55-4.1-.07-7.49,3.21-7.55,7.31Z"/><path d="M49.98,46.29s.07,0,.11-.03c3.02-1.7,6.01,.08,6.04,.1,.1,.06,.23,.03,.29-.07,.06-.1,.03-.23-.07-.29-.03-.02-3.24-1.92-6.47-.11-.1,.06-.14,.18-.08,.28,.04,.07,.11,.11,.18,.11Z"/></g><rect class="cls-10" x="34.19" y="89.9" width=".51" height="13.65"/><rect class="cls-10" x="73.56" y="89.9" width=".51" height="13.65"/><rect class="cls-10" x="53.8" y="72.17" width=".51" height="31.38"/><path class="cls-10" d="M54.33,71.27l-.32,.96-1.6,4.85s-6.32-2.03-8.5-5.81l.68-.84,2.37-2.96s.94,.98,2.67,1.99c1.13,.66,2.61,1.33,4.38,1.74,.1,.03,.21,.05,.32,.07Z"/><path class="cls-10" d="M64.11,71.27c-2.18,3.78-8.49,5.81-8.49,5.81l-1.61-4.85-.32-.96c.11-.02,.22-.05,.32-.07,1.73-.4,3.17-1.04,4.29-1.69,1.78-1.02,2.76-2.04,2.76-2.04l2.4,3,.65,.81Z"/></g><g><rect class="cls-4" x="3.63" y="13.5" width="15.88" height="22.57" rx="1.17" ry="1.17" transform="translate(-9.36 7.17) rotate(-24.89)"/><rect class="cls-10" x="2.39" y="16.89" width="12.28" height="2.73" transform="translate(-6.89 5.29) rotate(-24.89)"/><rect class="cls-8" x="3.84" y="20.89" width="12.28" height=".99" transform="translate(-8.07 6.19) rotate(-24.89)"/><g><g><rect class="cls-10" x="6.91" y="25.03" width="2.28" height="2.28" transform="translate(-10.26 5.82) rotate(-24.89)"/><rect class="cls-10" x="10.33" y="23.44" width="2.28" height="2.28" transform="translate(-9.28 7.11) rotate(-24.89)"/><rect class="cls-10" x="13.75" y="21.86" width="2.28" height="2.28" transform="translate(-8.29 8.4) rotate(-24.89)"/></g><g><rect class="cls-10" x="8.53" y="28.5" width="2.28" height="2.28" transform="translate(-11.57 6.82) rotate(-24.89)"/><rect class="cls-10" x="11.94" y="26.91" width="2.28" height="2.28" transform="translate(-10.59 8.11) rotate(-24.89)"/><rect class="cls-10" x="15.36" y="25.33" width="2.28" height="2.28" transform="translate(-9.61 9.4) rotate(-24.89)"/></g><g><rect class="cls-10" x="10.14" y="31.97" width="2.28" height="2.28" transform="translate(-12.89 7.82) rotate(-24.89)"/><rect class="cls-10" x="13.55" y="30.38" width="2.28" height="2.28" transform="translate(-11.9 9.11) rotate(-24.89)"/><rect class="cls-10" x="16.97" y="28.8" width="2.28" height="2.28" transform="translate(-10.92 10.4) rotate(-24.89)"/></g></g><path class="cls-8" d="M18.36,24.1l2.72,5.87c.27,.59,.02,1.28-.57,1.56l-3.52,1.63"/></g><g><path class="cls-10" d="M80.68,8.8h9.54c.92,0,1.67,.75,1.67,1.67v10.19c0,.92-.75,1.67-1.67,1.67h-9.54c-.92,0-1.67-.75-1.67-1.67V10.47c0-.92,.75-1.67,1.67-1.67Z" transform="translate(40.14 89.67) rotate(-68.88)"/><path class="cls-1" d="M87.65,16.45c.03-.07,.05-.13,.07-.2l.49,.05,.09-.84-.5-.06c-.02-.24-.07-.47-.16-.68l.43-.26-.44-.72-.44,.27c-.15-.17-.33-.32-.53-.44l.19-.48-.78-.3-.19,.48c-.22-.04-.44-.05-.66-.03l-.14-.5-.81,.23,.14,.49c-.15,.07-.3,.16-.43,.27l-.38-.33-.56,.63,.37,.33c-.08,.12-.14,.26-.2,.39-.02,.05-.04,.1-.05,.15l-.48-.06-.1,.84,.47,.05c.01,.24,.06,.48,.15,.71l-.4,.24,.44,.72,.39-.24c.16,.18,.34,.34,.56,.47l-.17,.43,.78,.3,.17-.43c.23,.04,.47,.05,.69,.03l.12,.44,.81-.23-.13-.45c.16-.08,.31-.17,.44-.29l.36,.31,.56-.63-.36-.32c.06-.11,.12-.22,.17-.35Zm-2.78,.62c-.83-.32-1.25-1.26-.92-2.09s1.26-1.25,2.09-.92,1.25,1.26,.92,2.09-1.26,1.25-2.09,.92Z"/><g><g><line class="cls-10" x1="84.11" y1="5.8" x2="83.32" y2="7.84"/><rect class="cls-10" x="82.63" y="6.47" width="2.19" height=".71" transform="translate(47.19 82.46) rotate(-68.88)"/></g><g><line class="cls-10" x1="85.59" y1="6.37" x2="84.81" y2="8.41"/><rect class="cls-10" x="84.11" y="7.04" width="2.19" height=".71" transform="translate(47.6 84.21) rotate(-68.88)"/></g><g><line class="cls-10" x1="87.07" y1="6.95" x2="86.29" y2="8.99"/><rect class="cls-10" x="85.59" y="7.61" width="2.19" height=".71" transform="translate(48.02 85.96) rotate(-68.88)"/></g><g><line class="cls-10" x1="88.56" y1="7.52" x2="87.77" y2="9.56"/><rect class="cls-10" x="87.07" y="8.18" width="2.19" height=".71" transform="translate(48.43 87.7) rotate(-68.88)"/></g><g><line class="cls-10" x1="90.04" y1="8.09" x2="89.25" y2="10.13"/><rect class="cls-10" x="88.55" y="8.76" width="2.19" height=".71" transform="translate(48.85 89.45) rotate(-68.88)"/></g><g><line class="cls-10" x1="91.52" y1="8.66" x2="90.73" y2="10.7"/><rect class="cls-10" x="90.03" y="9.33" width="2.19" height=".71" transform="translate(49.26 91.2) rotate(-68.88)"/></g><g><line class="cls-10" x1="93" y1="9.23" x2="92.21" y2="11.27"/><rect class="cls-10" x="91.51" y="9.9" width="2.19" height=".71" transform="translate(49.67 92.94) rotate(-68.88)"/></g></g><g><g><line class="cls-10" x1="95.52" y1="14.35" x2="93.48" y2="13.57"/><rect class="cls-10" x="94.14" y="12.87" width=".71" height="2.19" transform="translate(47.43 97.08) rotate(-68.88)"/></g><g><line class="cls-10" x1="94.95" y1="15.83" x2="92.91" y2="15.05"/><rect class="cls-10" x="93.57" y="14.35" width=".71" height="2.19" transform="translate(45.68 97.49) rotate(-68.88)"/></g><g><line class="cls-10" x1="94.37" y1="17.32" x2="92.33" y2="16.53"/><rect class="cls-10" x="93" y="15.83" width=".71" height="2.19" transform="translate(43.93 97.91) rotate(-68.88)"/></g><g><line class="cls-10" x1="93.8" y1="18.8" x2="91.76" y2="18.01"/><rect class="cls-10" x="92.43" y="17.31" width=".71" height="2.19" transform="translate(42.19 98.32) rotate(-68.88)"/></g><g><line class="cls-10" x1="93.23" y1="20.28" x2="91.19" y2="19.49"/><rect class="cls-10" x="91.86" y="18.79" width=".71" height="2.19" transform="translate(40.44 98.74) rotate(-68.88)"/></g><g><line class="cls-10" x1="92.66" y1="21.76" x2="90.62" y2="20.97"/><rect class="cls-10" x="91.28" y="20.27" width=".71" height="2.19" transform="translate(38.69 99.15) rotate(-68.88)"/></g><g><line class="cls-10" x1="92.09" y1="23.24" x2="90.05" y2="22.45"/><rect class="cls-10" x="90.71" y="21.75" width=".71" height="2.19" transform="translate(36.94 99.56) rotate(-68.88)"/></g></g><g><g><line class="cls-10" x1="86.78" y1="25.34" x2="87.57" y2="23.29"/><rect class="cls-10" x="86.08" y="23.96" width="2.19" height=".71" transform="translate(33.08 96.87) rotate(-68.88)"/></g><g><line class="cls-10" x1="85.3" y1="24.76" x2="86.09" y2="22.72"/><rect class="cls-10" x="84.6" y="23.39" width="2.19" height=".71" transform="translate(32.67 95.13) rotate(-68.88)"/></g><g><line class="cls-10" x1="83.82" y1="24.19" x2="84.61" y2="22.15"/><rect class="cls-10" x="83.12" y="22.82" width="2.19" height=".71" transform="translate(32.26 93.38) rotate(-68.88)"/></g><g><line class="cls-10" x1="82.34" y1="23.62" x2="83.12" y2="21.58"/><rect class="cls-10" x="81.64" y="22.25" width="2.19" height=".71" transform="translate(31.84 91.63) rotate(-68.88)"/></g><g><line class="cls-10" x1="80.86" y1="23.05" x2="81.64" y2="21.01"/><rect class="cls-10" x="80.16" y="21.67" width="2.19" height=".71" transform="translate(31.43 89.88) rotate(-68.88)"/></g><g><line class="cls-10" x1="79.37" y1="22.48" x2="80.16" y2="20.44"/><rect class="cls-10" x="78.68" y="21.1" width="2.19" height=".71" transform="translate(31.01 88.14) rotate(-68.88)"/></g><g><line class="cls-10" x1="77.89" y1="21.9" x2="78.68" y2="19.86"/><rect class="cls-10" x="77.19" y="20.53" width="2.19" height=".71" transform="translate(30.6 86.39) rotate(-68.88)"/></g></g><g><g><line class="cls-10" x1="75.37" y1="16.78" x2="77.42" y2="17.57"/><rect class="cls-10" x="76.04" y="16.08" width=".71" height="2.19" transform="translate(32.85 82.25) rotate(-68.88)"/></g><g><line class="cls-10" x1="75.95" y1="15.3" x2="77.99" y2="16.09"/><rect class="cls-10" x="76.61" y="14.6" width=".71" height="2.19" transform="translate(34.59 81.84) rotate(-68.88)"/></g><g><line class="cls-10" x1="76.52" y1="13.82" x2="78.56" y2="14.61"/><rect class="cls-10" x="77.18" y="13.12" width=".71" height="2.19" transform="translate(36.34 81.43) rotate(-68.88)"/></g><g><line class="cls-10" x1="77.09" y1="12.34" x2="79.13" y2="13.13"/><rect class="cls-10" x="77.76" y="11.64" width=".71" height="2.19" transform="translate(38.09 81.01) rotate(-68.88)"/></g><g><line class="cls-10" x1="77.66" y1="10.86" x2="79.7" y2="11.65"/><rect class="cls-10" x="78.33" y="10.16" width=".71" height="2.19" transform="translate(39.83 80.6) rotate(-68.88)"/></g><g><line class="cls-10" x1="78.23" y1="9.38" x2="80.28" y2="10.17"/><rect class="cls-10" x="78.9" y="8.68" width=".71" height="2.19" transform="translate(41.58 80.18) rotate(-68.88)"/></g><g><line class="cls-10" x1="78.81" y1="7.9" x2="80.85" y2="8.69"/><rect class="cls-10" x="79.47" y="7.2" width=".71" height="2.19" transform="translate(43.33 79.77) rotate(-68.88)"/></g></g><g><path class="cls-1" d="M82.81,9.62c-.1,.26-.39,.38-.64,.28s-.38-.38-.28-.64,.39-.38,.64-.28,.38,.39,.28,.64Z"/><path class="cls-1" d="M79.5,18.2c-.1,.25-.39,.38-.64,.28s-.38-.39-.28-.64,.39-.38,.64-.28,.38,.39,.28,.64Z"/></g><g><path class="cls-1" d="M92.47,13.35c-.1,.26-.39,.38-.64,.28s-.38-.39-.28-.64,.39-.38,.64-.28,.38,.39,.28,.64Z"/><path class="cls-1" d="M89.16,21.93c-.1,.25-.39,.38-.64,.28s-.38-.39-.28-.64,.39-.38,.64-.28,.38,.39,.28,.64Z"/></g></g></g></g></svg>